<svg xmlns="http://www.w3.org/2000/svg" xmlns:xlink="http://www.w3.org/1999/xlink" width="500" zoomAndPan="magnify" viewBox="0 0 375 374.999991" height="500" preserveAspectRatio="xMidYMid meet" version="1.2"><defs/><g id="15c757f03b"><g style="fill:#00ffa6;fill-opacity:1;"><g transform="translate(71.771484, 215.204247)"><path style="stroke:none" d="M 8.0625 -45.46875 C 10.257812 -45.46875 12.585938 -45.3125 15.046875 -45 C 17.515625 -44.695312 19.90625 -44.109375 22.21875 -43.234375 C 24.53125 -42.367188 26.625 -41.101562 28.5 -39.4375 C 30.375 -37.769531 31.867188 -35.582031 32.984375 -32.875 C 34.109375 -30.164062 34.671875 -26.785156 34.671875 -22.734375 C 34.671875 -18.828125 34.117188 -15.535156 33.015625 -12.859375 C 31.921875 -10.191406 30.441406 -8.015625 28.578125 -6.328125 C 26.722656 -4.648438 24.628906 -3.34375 22.296875 -2.40625 C 19.972656 -1.476562 17.585938 -0.84375 15.140625 -0.5 C 12.703125 -0.164062 10.34375 0 8.0625 0 L 0.625 0 C 0.207031 0 0 -0.171875 0 -0.515625 L 0 -18.359375 L 8.6875 -18.359375 L 8.6875 -8.359375 C 9.789062 -8.316406 11.082031 -8.34375 12.5625 -8.4375 C 14.039062 -8.53125 15.554688 -8.8125 17.109375 -9.28125 C 18.660156 -9.757812 20.109375 -10.507812 21.453125 -11.53125 C 22.796875 -12.5625 23.875 -13.984375 24.6875 -15.796875 C 25.5 -17.617188 25.90625 -19.929688 25.90625 -22.734375 C 25.90625 -26.328125 25.15625 -29.210938 23.65625 -31.390625 C 22.164062 -33.578125 20.125 -35.132812 17.53125 -36.0625 C 14.9375 -36.988281 11.988281 -37.359375 8.6875 -37.171875 L 8.6875 -27.109375 L 0 -27.109375 L 0 -44.953125 C 0 -45.296875 0.207031 -45.46875 0.625 -45.46875 Z M 8.0625 -45.46875 "/></g></g><g style="fill:#00ffa6;fill-opacity:1;"><g transform="translate(108.195405, 215.204247)"><path style="stroke:none" d="M 35.6875 -0.6875 C 35.757812 -0.53125 35.738281 -0.375 35.625 -0.21875 C 35.507812 -0.0703125 35.359375 0 35.171875 0 L 27.328125 0 C 27.066406 0 26.898438 -0.113281 26.828125 -0.34375 L 17.84375 -25.6875 L 8.984375 -0.34375 C 8.941406 -0.113281 8.75 0 8.40625 0 L 0.625 0 C 0.363281 0 0.179688 -0.0703125 0.078125 -0.21875 C -0.015625 -0.375 -0.0195312 -0.53125 0.0625 -0.6875 L 17.28125 -45.125 C 17.351562 -45.351562 17.539062 -45.46875 17.84375 -45.46875 C 18.144531 -45.46875 18.332031 -45.351562 18.40625 -45.125 Z M 35.6875 -0.6875 "/></g></g><g style="fill:#00ffa6;fill-opacity:1;"><g transform="translate(145.698972, 215.204247)"><path style="stroke:none" d="M 18.53125 -7.78125 C 18.945312 -7.78125 19.15625 -7.613281 19.15625 -7.28125 L 19.15625 -0.515625 C 19.15625 -0.171875 18.945312 0 18.53125 0 L 0.625 0 C 0.207031 0 0 -0.171875 0 -0.515625 L 0 -7.28125 C 0 -7.613281 0.207031 -7.78125 0.625 -7.78125 L 5.28125 -7.78125 L 5.28125 -45.46875 L 13.984375 -45.46875 L 13.984375 -7.78125 Z M 18.53125 -7.78125 "/></g></g><g style="fill:#00ffa6;fill-opacity:1;"><g transform="translate(165.814525, 215.204247)"><path style="stroke:none" d="M 24.546875 -8.46875 C 24.960938 -8.46875 25.171875 -8.28125 25.171875 -7.90625 L 25.171875 -0.515625 C 25.171875 -0.171875 24.960938 0 24.546875 0 L 0.625 0 C 0.207031 0 0 -0.171875 0 -0.515625 L 0 -8.46875 Z M 8.6875 -17.15625 L 0 -17.15625 L 0 -44.953125 C 0 -45.296875 0.207031 -45.46875 0.625 -45.46875 L 8.125 -45.46875 C 8.5 -45.46875 8.6875 -45.296875 8.6875 -44.953125 Z M 8.6875 -17.15625 "/></g></g><g style="fill:#00ffa6;fill-opacity:1;"><g transform="translate(192.294312, 215.204247)"><path style="stroke:none" d="M 25.796875 -36.765625 L 36.375 -36.765625 L 25.40625 -21.375 L 25.40625 -0.515625 C 25.40625 -0.171875 25.195312 0 24.78125 0 L 17.328125 0 C 16.910156 0 16.703125 -0.171875 16.703125 -0.515625 L 16.703125 -21.375 C 13.972656 -25.269531 11.21875 -29.148438 8.4375 -33.015625 C 5.65625 -36.878906 2.878906 -40.742188 0.109375 -44.609375 C -0.0351562 -44.796875 -0.0507812 -44.984375 0.0625 -45.171875 C 0.175781 -45.367188 0.382812 -45.46875 0.6875 -45.46875 L 9.65625 -45.46875 C 9.925781 -45.46875 10.117188 -45.410156 10.234375 -45.296875 L 21.03125 -30.125 Z M 25.796875 -36.765625 "/></g></g><g style="fill:#00ffa6;fill-opacity:1;"><g transform="translate(230.479764, 215.204247)"><path style="stroke:none" d="M 21.59375 -8.46875 L 21.59375 0 L 0.625 0 C 0.207031 0 0 -0.171875 0 -0.515625 L 0 -44.953125 C 0 -45.296875 0.207031 -45.46875 0.625 -45.46875 L 21.59375 -45.46875 L 21.59375 -37.21875 L 8.6875 -37.21875 L 8.6875 -26.9375 L 26.53125 -26.9375 C 26.945312 -26.9375 27.15625 -26.765625 27.15625 -26.421875 L 27.15625 -19.203125 C 27.15625 -18.867188 26.945312 -18.703125 26.53125 -18.703125 L 8.6875 -18.703125 L 8.6875 -8.46875 Z M 21.59375 -8.46875 "/></g></g><g style="fill:#00ffa6;fill-opacity:1;"><g transform="translate(259.005206, 215.204247)"><path style="stroke:none" d="M 41.421875 -45.46875 C 41.722656 -45.46875 41.929688 -45.367188 42.046875 -45.171875 C 42.160156 -44.984375 42.144531 -44.796875 42 -44.609375 L 26.3125 -22.734375 C 27.976562 -20.421875 29.65625 -18.085938 31.34375 -15.734375 C 33.03125 -13.390625 34.707031 -11.039062 36.375 -8.6875 L 25.796875 -8.6875 L 21.078125 -15.34375 L 10.234375 -0.171875 C 10.191406 -0.128906 10.113281 -0.0859375 10 -0.046875 C 9.882812 -0.015625 9.789062 0 9.71875 0 L 0.625 0 C 0.363281 0 0.179688 -0.09375 0.078125 -0.28125 C -0.015625 -0.46875 0.015625 -0.660156 0.171875 -0.859375 L 15.734375 -22.734375 C 14.066406 -25.046875 12.398438 -27.375 10.734375 -29.71875 C 9.066406 -32.070312 7.398438 -34.421875 5.734375 -36.765625 L 16.3125 -36.765625 L 21.078125 -30.125 L 31.828125 -45.296875 C 31.859375 -45.367188 31.941406 -45.414062 32.078125 -45.4375 C 32.210938 -45.457031 32.296875 -45.46875 32.328125 -45.46875 Z M 41.421875 -45.46875 "/></g></g></g></svg>